HIERARCHY
ROOT Hips
{
	OFFSET 0.00000 0.00000 0.00000
	CHANNELS 6 Xposition Yposition Zposition Zrotation Yrotation Xrotation 
	JOINT LHipJoint
	{
		OFFSET 0 0 0
		CHANNELS 3 Zrotation Yrotation Xrotation
		JOINT LeftUpLeg
		{
			OFFSET 1.62964 -1.40469 0.78906
			CHANNELS 3 Zrotation Yrotation Xrotation
			JOINT LeftLeg
			{
				OFFSET 2.29640 -6.30932 0.00000
				CHANNELS 3 Zrotation Yrotation Xrotation
				JOINT LeftFoot
				{
					OFFSET 2.29451 -6.30412 0.00000
					CHANNELS 3 Zrotation Yrotation Xrotation
					JOINT LeftToeBase
					{
						OFFSET 0.03611 -0.09921 1.56387
						CHANNELS 3 Zrotation Yrotation Xrotation
						End Site
						{
							OFFSET 0.00000 -0.00000 0.80291
						}
					}
				}
			}
		}
	}
	JOINT RHipJoint
	{
		OFFSET 0 0 0
		CHANNELS 3 Zrotation Yrotation Xrotation
		JOINT RightUpLeg
		{
			OFFSET -1.73712 -1.40469 0.78906
			CHANNELS 3 Zrotation Yrotation Xrotation
			JOINT RightLeg
			{
				OFFSET -2.28137 -6.26801 0.00000
				CHANNELS 3 Zrotation Yrotation Xrotation
				JOINT RightFoot
				{
					OFFSET -2.28681 -6.28298 0.00000
					CHANNELS 3 Zrotation Yrotation Xrotation
					JOINT RightToeBase
					{
						OFFSET -0.15927 -0.43759 1.61103
						CHANNELS 3 Zrotation Yrotation Xrotation
						End Site
						{
							OFFSET -0.00000 -0.00000 0.84630
						}
					}
				}
			}
		}
	}
	JOINT LowerBack
	{
		OFFSET 0 0 0
		CHANNELS 3 Zrotation Yrotation Xrotation
		JOINT Spine
		{
			OFFSET -0.04227 2.04338 -0.00225
			CHANNELS 3 Zrotation Yrotation Xrotation
			JOINT Spine1
			{
				OFFSET -0.02148 2.04482 -0.04273
				CHANNELS 3 Zrotation Yrotation Xrotation
				JOINT Neck
				{
					OFFSET 0 0 0
					CHANNELS 3 Zrotation Yrotation Xrotation
					JOINT Neck1
					{
						OFFSET 0.09180 1.44629 0.19359
						CHANNELS 3 Zrotation Yrotation Xrotation
						JOINT Head
						{
							OFFSET 0.00887 1.40645 0.14750
							CHANNELS 3 Zrotation Yrotation Xrotation
							End Site
							{
								OFFSET -0.00669 1.50671 0.03707
							}
						}
					}
				}
				JOINT LeftShoulder
				{
					OFFSET 0 0 0
					CHANNELS 3 Zrotation Yrotation Xrotation
					JOINT LeftArm
					{
						OFFSET 2.17674 1.86763 -0.06520
						CHANNELS 3 Zrotation Yrotation Xrotation
						JOINT LeftForeArm
						{
							OFFSET 4.65776 -0.00000 0.00000
							CHANNELS 3 Zrotation Yrotation Xrotation
							JOINT LeftHand
							{
								OFFSET 3.55539 -0.00000 0.00000
								CHANNELS 3 Zrotation Yrotation Xrotation
								JOINT LeftFingerBase
								{
									OFFSET 0 0 0
									CHANNELS 3 Zrotation Yrotation Xrotation
									JOINT LeftHandIndex1
									{
										OFFSET 0.70726 -0.00000 0.00000
										CHANNELS 3 Zrotation Yrotation Xrotation
										End Site
										{
											OFFSET 0.57022 -0.00000 0.00000
										}
									}
								}
								JOINT LThumb
								{
									OFFSET 0 0 0
									CHANNELS 3 Zrotation Yrotation Xrotation
									End Site
									{
										OFFSET 0.57892 -0.00000 0.57892
									}
								}
							}
						}
					}
				}
				JOINT RightShoulder
				{
					OFFSET 0 0 0
					CHANNELS 3 Zrotation Yrotation Xrotation
					JOINT RightArm
					{
						OFFSET -2.80694 1.55459 -0.32496
						CHANNELS 3 Zrotation Yrotation Xrotation
						JOINT RightForeArm
						{
							OFFSET -4.71925 -0.00000 -0.00000
							CHANNELS 3 Zrotation Yrotation Xrotation
							JOINT RightHand
							{
								OFFSET -3.56990 -0.00000 0.00000
								CHANNELS 3 Zrotation Yrotation Xrotation
								JOINT RightFingerBase
								{
									OFFSET 0 0 0
									CHANNELS 3 Zrotation Yrotation Xrotation
									JOINT RightHandIndex1
									{
										OFFSET -0.50776 -0.00000 0.00000
										CHANNELS 3 Zrotation Yrotation Xrotation
										End Site
										{
											OFFSET -0.40937 -0.00000 0.00000
										}
									}
								}
								JOINT RThumb
								{
									OFFSET 0 0 0
									CHANNELS 3 Zrotation Yrotation Xrotation
									End Site
									{
										OFFSET -0.41562 -0.00000 0.41562
									}
								}
							}
						}
					}
				}
			}
		}
	}
}
MOTION
Frames: 15
Frame Time: .0083333
16.5138 19.6813 20.7504 0 0 0 0 0 0 -21 0 0 0 0 0 0 0 0 0 0 0 0 0 0 21 0 0 0 0 0 0 0 0 0 0 0 0 0 0 0 0 0 0 0 0 0 0 -16 0 0 21 0 0 11 0 0 0 -8 0 0 0 0 0 0 0 0 0 0 0 0 0 0 0 0 0 0 0 0 8 0 0 0 0 0 0 0 0 0 0 0 0 0 0 0 0 0
16.5138 19.6813 20.7504 178.2000 -3.1111 -153.2770 0.0000 0.0000 0.0000 -21.1770 -14.4008 -21.1800 0.2150 2.9849 8.2368 -0.0504 -7.4550 -3.9983 0.8033 -5.7202 -15.9748 0.0000 0.0000 0.0000 19.0397 13.9311 -19.9524 -0.1356 -2.3732 6.5381 -1.1821 3.5060 -19.6877 -1.3412 7.3326 -20.7045 -6.2960 -2.4042 -30.4288 0.3038 -1.6801 -1.1823 3.0011 -1.4524 14.8186 -1.2230 -2.0175 -4.1887 5.2105 -3.8734 13.1930 1.5807 -1.8858 4.7654 -0.0000 -0.0000 0.0000 -84.3854 1.7576 22.0426 12.6392 -20.7562 -2.3238 -0.0000 -0.0000 3.1018 21.3700 -12.3028 -4.7660 -7.1250 0.0000 -0.0000 -4.0699 16.8206 2.7250 -0.0000 -0.0000 0.0000 91.7732 -8.0208 5.5078 -19.0680 29.5031 -5.0643 0.0000 -0.0000 -3.4242 -12.2863 -51.2926 9.6452 7.1250 -0.0000 -0.0000 60.3717 -75.2426 -46.4149
16.5140 19.6811 20.7489 178.2150 -3.0921 -153.2510 0.0000 0.0000 0.0000 -21.1665 -14.3542 -21.2221 0.2154 2.9879 8.2452 -0.0524 -7.4831 -3.9719 0.8022 -5.7165 -15.9642 0.0000 0.0000 0.0000 19.0506 13.9555 -19.9649 -0.1350 -2.3682 6.5243 -1.0923 3.2364 -18.9402 -1.4267 7.5530 -21.3643 -6.2915 -2.4128 -30.4700 0.3071 -1.6907 -1.1743 2.9967 -1.4578 14.8476 -1.2640 -2.0565 -4.2923 5.2655 -3.9477 13.3395 1.5982 -1.9205 4.8323 -0.0000 0.0000 0.0000 -84.3977 1.7202 21.9632 12.6330 -20.7471 -2.3217 -0.0000 -0.0000 3.0154 21.1780 -12.1068 -4.6456 -7.1250 0.0000 -0.0000 -4.1966 17.0466 2.7895 -0.0000 0.0000 0.0000 91.7422 -8.0679 5.6577 -19.1228 29.5710 -5.0913 0.0000 -0.0000 -3.5446 -12.2524 -51.1048 9.5934 7.1250 -0.0000 -0.0000 59.7312 -75.1531 -45.7607
16.5139 19.6797 20.7471 178.2390 -3.0802 -153.2170 0.0000 0.0000 0.0000 -21.1368 -14.3514 -21.2521 0.2155 2.9886 8.2470 -0.0369 -7.7481 -4.5913 1.5166 -7.7767 -22.0379 0.0000 0.0000 0.0000 19.0906 13.9014 -20.0198 -0.1352 -2.3703 6.5302 -1.2172 3.7129 -19.9560 -1.1921 6.9282 -19.5028 -6.2840 -2.4343 -30.5314 0.3227 -1.7192 -1.1620 2.9962 -1.4718 14.8931 -1.2760 -2.0904 -4.3221 5.2963 -4.0071 13.4055 1.6055 -1.9491 4.8605 0.0000 0.0000 0.0000 -84.4126 1.6708 21.7680 12.6269 -20.7381 -2.3195 -0.0000 -0.0000 3.1829 21.1987 -12.2173 -4.6921 -7.1250 0.0000 -0.0000 -4.1859 16.9274 2.7933 0.0000 0.0000 0.0000 91.7123 -8.0289 5.7381 -19.1264 29.5754 -5.0931 0.0000 -0.0000 -3.5710 -12.3871 -51.1377 9.7046 7.1250 -0.0000 -0.0000 59.7629 -75.2183 -45.8564
16.5132 19.6788 20.7454 178.2410 -3.0921 -153.2260 0.0000 0.0000 0.0000 -21.1451 -14.3151 -21.2493 0.2158 2.9907 8.2529 -0.0546 -7.5342 -3.9612 0.7537 -5.5448 -15.4692 0.0000 0.0000 0.0000 19.1100 13.8111 -20.0599 -0.1374 -2.3892 6.5827 -1.2013 3.7020 -19.8221 -1.3786 7.4299 -20.9955 -6.3171 -2.4675 -30.5234 0.3538 -1.7551 -1.1591 3.0336 -1.4905 14.8985 -1.2812 -2.0374 -4.2969 5.3195 -3.9263 13.3167 1.6189 -1.9080 4.8266 0.0000 0.0000 0.0000 -84.4455 1.6613 21.6619 12.6318 -20.7453 -2.3212 -0.0000 -0.0000 3.3377 21.3040 -12.3262 -4.7588 -7.1250 0.0000 -0.0000 -4.1167 16.8018 2.7582 0.0000 0.0000 0.0000 91.6496 -8.0271 5.8092 -19.1064 29.5507 -5.0832 0.0000 -0.0000 -3.6046 -12.4893 -51.1236 9.7837 7.1250 -0.0000 -0.0000 59.6501 -75.2517 -45.7926
16.5121 19.6792 20.7426 178.2280 -3.0956 -153.2510 0.0000 0.0000 0.0000 -21.1761 -14.2584 -21.2333 0.2159 2.9911 8.2540 -0.0632 -7.5128 -3.7081 0.5702 -4.8359 -13.4410 0.0000 0.0000 0.0000 19.0905 13.7839 -20.0631 -0.1400 -2.4115 6.6443 -1.1693 3.5767 -19.5651 -1.5296 7.8086 -22.1342 -6.3355 -2.4741 -30.5286 0.3460 -1.7497 -1.1263 3.0373 -1.4887 14.9389 -1.1233 -1.8938 -4.4344 5.2284 -3.6939 13.1096 1.5777 -1.7823 4.7742 0.0000 0.0000 0.0000 -84.4461 1.6134 21.6230 12.6391 -20.7562 -2.3238 -0.0000 -0.0000 3.4146 21.2886 -12.2468 -4.7250 -7.1250 0.0000 -0.0000 -4.1245 16.8877 2.7557 0.0000 0.0000 0.0000 91.6526 -7.9878 5.8169 -19.0824 29.5209 -5.0714 0.0000 -0.0000 -3.6184 -12.4148 -51.2280 9.7386 7.1250 -0.0000 -0.0000 60.0648 -75.2658 -46.1700
16.5106 19.6789 20.7380 178.2280 -3.0604 -153.2680 0.0000 0.0000 0.0000 -21.1944 -14.2479 -21.1750 0.2137 2.9760 8.2119 -0.0607 -7.4583 -3.7247 0.6109 -5.0027 -13.9161 0.0000 0.0000 0.0000 19.0749 13.8111 -20.0259 -0.1405 -2.4156 6.6557 -1.1727 3.5871 -19.5929 -1.5213 7.7883 -22.0729 -6.3228 -2.4640 -30.5529 0.3306 -1.7347 -1.1084 3.0190 -1.4812 14.9686 -0.9667 -1.8284 -4.6385 5.1363 -3.5861 13.0387 1.5279 -1.7185 4.7796 0.0000 0.0000 0.0000 -84.4752 1.6524 21.5405 12.6777 -20.8131 -2.3375 -0.0000 -0.0000 3.4463 21.2785 -12.1870 -4.7000 -7.1250 0.0000 -0.0000 -4.1294 16.9522 2.7532 0.0000 0.0000 0.0000 91.6920 -7.9094 5.6388 -19.0255 29.4503 -5.0434 0.0000 -0.0000 -3.4522 -12.2628 -51.4594 9.6485 7.1250 -0.0000 -0.0000 60.9789 -75.2998 -47.0086
16.5099 19.6786 20.7344 178.2750 -2.9897 -153.2830 0.0000 0.0000 0.0000 -21.1533 -14.2535 -21.1084 0.2109 2.9567 8.1581 -0.0505 -7.1867 -3.7539 0.6047 -4.9776 -13.8448 0.0000 0.0000 0.0000 19.1084 13.9179 -19.9700 -0.1407 -2.4177 6.6615 -1.1749 3.5774 -19.6140 -1.5244 7.7960 -22.0961 -6.2966 -2.4358 -30.5240 0.3486 -1.7167 -1.1401 3.0328 -1.4718 14.9168 -0.9382 -1.9134 -4.6516 5.0875 -3.7031 13.0785 1.5010 -1.7775 4.7966 -0.0000 0.0000 0.0000 -84.5448 1.7831 21.4668 12.7302 -20.8907 -2.3562 -0.0000 -0.0000 3.4352 21.2987 -12.1215 -4.6801 -7.1250 0.0000 -0.0000 -4.1131 17.0199 2.7361 -0.0000 0.0000 0.0000 91.6848 -7.8817 5.4799 -18.9732 29.3854 -5.0177 0.0000 -0.0000 -3.3096 -12.1875 -51.5273 9.5975 7.1250 -0.0000 -0.0000 61.2652 -75.2974 -47.2586
16.5095 19.6791 20.7328 178.3250 -2.9531 -153.2640 0.0000 0.0000 0.0000 -21.0980 -14.2497 -21.1387 0.2123 2.9665 8.1855 -0.0368 -7.0305 -3.9923 0.8900 -6.0133 -16.8229 0.0000 0.0000 0.0000 19.1640 13.8835 -19.9998 -0.1402 -2.4131 6.6487 -1.2087 3.8081 -19.8697 -1.3659 7.3969 -20.8968 -6.2583 -2.4005 -30.5203 0.3507 -1.6898 -1.1680 3.0254 -1.4577 14.8791 -0.8121 -2.0599 -4.6823 4.9302 -3.9247 13.3174 1.4172 -1.8916 4.8774 0.0000 -0.0000 0.0000 -84.5169 1.8335 21.5272 12.7551 -20.9273 -2.3651 -0.0000 -0.0000 3.3683 21.2209 -12.0616 -4.6388 -7.1250 0.0000 -0.0000 -4.1652 17.0907 2.7645 0.0000 -0.0000 0.0000 91.7114 -7.8688 5.3897 -18.9521 29.3591 -5.0073 0.0000 -0.0000 -3.2658 -12.1242 -51.4047 9.5311 7.1250 -0.0000 -0.0000 60.8656 -75.2251 -46.8305
16.5089 19.6791 20.7318 178.3260 -2.9644 -153.2060 0.0000 0.0000 0.0000 -21.0945 -14.2264 -21.2443 0.2154 2.9875 8.2440 -0.0215 -7.4276 -4.7041 1.9663 -8.7955 -25.1576 0.0000 0.0000 0.0000 19.1729 13.7622 -20.0892 -0.1389 -2.4018 6.6174 -1.2224 4.0240 -19.9554 -1.2028 6.9581 -19.5914 -6.2598 -2.4093 -30.5698 0.3549 -1.7013 -1.1764 3.0245 -1.4645 14.8926 -0.8505 -1.9897 -4.7400 5.0104 -3.8153 13.1809 1.4548 -1.8312 4.8439 0.0000 -0.0000 0.0000 -84.4831 1.8811 21.6520 12.8094 -21.0073 -2.3845 -0.0000 -0.0000 3.2432 21.1687 -12.0959 -4.6392 -7.1250 0.0000 -0.0000 -4.2028 17.0590 2.7925 0.0000 -0.0000 0.0000 91.7245 -7.8457 5.3453 -18.9502 29.3568 -5.0064 0.0000 -0.0000 -3.2585 -12.0006 -51.1355 9.3979 7.1250 -0.0000 -0.0000 59.9945 -75.0694 -45.9035
16.5092 19.6789 20.7292 178.2650 -2.9793 -153.1860 0.0000 0.0000 0.0000 -21.1681 -14.2088 -21.2440 0.2138 2.9769 8.2145 -0.0431 -7.4684 -4.2027 1.2768 -7.1612 -20.1939 0.0000 0.0000 0.0000 19.0987 13.8008 -20.0555 -0.1370 -2.3855 6.5723 -1.0974 3.5522 -18.9349 -1.4532 7.6197 -21.5649 -6.3279 -2.4581 -30.5934 0.3585 -1.7413 -1.1753 3.0479 -1.4876 14.9096 -0.9104 -1.9568 -4.7219 5.0133 -3.7581 13.1368 1.4694 -1.8052 4.8264 0.0000 0.0000 0.0000 -84.4941 1.9596 21.7042 12.8514 -21.0690 -2.3996 -0.0000 -0.0000 3.1678 21.2322 -12.2308 -4.7053 -7.1250 0.0000 -0.0000 -4.1632 16.9100 2.7796 0.0000 0.0000 0.0000 91.6987 -7.9069 5.4164 -18.9954 29.4130 -5.0286 0.0000 -0.0000 -3.3152 -11.9405 -50.9621 9.3279 7.1250 -0.0000 -0.0000 59.4315 -74.9744 -45.3133
16.5100 19.6794 20.7267 178.2260 -2.9840 -153.1940 0.0000 0.0000 0.0000 -21.2133 -14.2355 -21.1671 0.2098 2.9494 8.1378 -0.0490 -7.5263 -4.0995 1.0746 -6.5895 -18.5048 0.0000 0.0000 0.0000 19.0518 13.8645 -19.9923 -0.1357 -2.3745 6.5419 -1.2025 3.7681 -19.8224 -1.2584 7.1113 -20.0455 -6.3864 -2.4919 -30.5866 0.3712 -1.7665 -1.1716 3.0832 -1.5030 14.9148 -1.0873 -1.9128 -4.5956 5.1765 -3.6923 13.0011 1.5547 -1.7748 4.7668 0.0000 -0.0000 0.0000 -84.5556 1.9660 21.5976 12.8367 -21.0474 -2.3943 -0.0000 -0.0000 3.2207 21.2709 -12.3213 -4.7489 -7.1250 0.0000 -0.0000 -4.1395 16.8102 2.7728 0.0000 -0.0000 0.0000 91.6679 -7.9410 5.4400 -19.0151 29.4375 -5.0383 0.0000 -0.0000 -3.3100 -12.0156 -51.0361 9.3969 7.1250 -0.0000 -0.0000 59.6395 -75.0341 -45.5567
16.5100 19.6796 20.7251 178.2460 -2.9890 -153.1670 0.0000 0.0000 0.0000 -21.1848 -14.2722 -21.1723 0.2095 2.9467 8.1304 -0.0544 -7.4307 -3.8702 0.7364 -5.4824 -15.2896 0.0000 0.0000 0.0000 19.0860 13.7960 -20.0128 -0.1336 -2.3557 6.4898 -1.1204 3.5523 -19.1400 -1.5714 7.9097 -22.4400 -6.3866 -2.4870 -30.5801 0.3805 -1.7654 -1.1918 3.0941 -1.5029 14.8884 -1.1523 -1.9523 -4.5500 5.2707 -3.7692 13.0834 1.5900 -1.8143 4.7897 -0.0000 -0.0000 0.0000 -84.5915 1.9963 21.5650 12.8337 -21.0431 -2.3933 -0.0000 -0.0000 3.2650 21.3552 -12.2823 -4.7547 -7.1250 0.0000 -0.0000 -4.0795 16.8438 2.7294 -0.0000 -0.0000 0.0000 91.6753 -7.9669 5.4317 -19.0399 29.4683 -5.0505 0.0000 -0.0000 -3.3145 -12.1648 -51.3194 9.5521 7.1250 -0.0000 -0.0000 60.5395 -75.2068 -46.5247
16.5096 19.6777 20.7226 178.2070 -2.9712 -153.1370 0.0000 0.0000 0.0000 -21.2372 -14.2914 -21.2050 0.2113 2.9594 8.1656 -0.0586 -7.3886 -3.7175 0.5548 -4.7713 -13.2574 0.0000 0.0000 0.0000 19.0559 13.6446 -20.0770 -0.1326 -2.3468 6.4650 -1.1497 3.8317 -19.3567 -1.4864 7.7025 -21.8140 -6.4170 -2.4883 -30.6038 0.3422 -1.7541 -1.2060 3.0722 -1.4999 14.8795 -1.1265 -1.9990 -4.5362 5.2339 -3.8720 13.3693 1.5671 -1.8711 4.8775 0.0000 -0.0000 0.0000 -84.5519 2.0323 21.5934 12.8208 -21.0241 -2.3886 -0.0000 -0.0000 3.2795 21.4404 -12.2436 -4.7607 -7.1250 0.0000 -0.0000 -4.0188 16.8769 2.6857 0.0000 -0.0000 0.0000 91.7052 -8.0410 5.5097 -19.0874 29.5271 -5.0738 0.0000 -0.0000 -3.4071 -12.2591 -51.4670 9.6466 7.1250 -0.0000 -0.0000 61.0080 -75.3013 -47.0359
16.5107 19.6770 20.7213 178.1460 -2.9362 -153.1290 0.0000 0.0000 0.0000 -21.3135 -14.2791 -21.1962 0.2101 2.9510 8.1423 -0.0598 -7.3688 -3.6636 0.4989 -4.5282 -12.5678 0.0000 0.0000 0.0000 18.9801 13.6554 -20.0823 -0.1333 -2.3530 6.4822 -1.1504 3.8551 -19.3591 -1.4640 7.6468 -21.6463 -6.4972 -2.5051 -30.6329 0.3235 -1.7360 -1.1601 3.1016 -1.4970 14.9451 -1.2450 -1.9225 -4.5410 5.3352 -3.7535 13.2578 1.6253 -1.8105 4.8437 0.0000 0.0000 0.0000 -84.5265 1.9640 21.7080 12.8263 -21.0322 -2.3906 -0.0000 -0.0000 3.1147 21.4023 -11.9779 -4.6503 -7.1250 0.0000 -0.0000 -4.0359 17.1632 2.6719 0.0000 0.0000 0.0000 91.6979 -7.9581 5.5532 -19.0988 29.5413 -5.0795 0.0000 -0.0000 -3.4554 -12.3778 -51.4564 9.7397 7.1250 -0.0000 -0.0000 60.9005 -75.3428 -46.9848
